<?xml version="1.0" standalone="no"?>
<!DOCTYPE svg PUBLIC "-//W3C//DTD SVG 1.0//EN" "http://www.w3.org/TR/2001/REC-SVG-20010904/DTD/svg10.dtd">
<svg xmlns="http://www.w3.org/2000/svg" xmlns:xlink="http://www.w3.org/1999/xlink" id="body_1" width="149" height="149">

<defs>
    <clipPath  id="1">

    <path id=""  clip-rule="evenodd" transform="matrix(1 0 0 1 0 0)"  d="M0 112L0 -0.5L0 -0.5L112.5 -0.5L112.5 -0.5L112.5 112L112.5 112L0 112z" />    </clipPath>
</defs>

<g transform="matrix(1.3333 0 0 1.3333 0 0)">
	<g clip-path="url(#1)" >
    <path id=""  transform="matrix(1 0 0 -1 0 112)"  d="M111 56.25C 111 71.36879 105.6547 84.27349 94.964096 94.964096L94.964096 94.964096L94.964096 94.964096C 84.2735 105.6547 71.3688 111 56.25 111L56.25 111L56.25 111C 41.131207 111 28.22651 105.6547 17.535904 94.964096L17.535904 94.964096L17.535904 94.964096C 6.8453016 84.27349 1.5 71.36879 1.5 56.25L1.5 56.25L1.5 56.25C 1.5 41.131203 6.8453016 28.226501 17.535904 17.535904L17.535904 17.535904L17.535904 17.535904C 28.22651 6.845299 41.131207 1.5 56.25 1.5L56.25 1.5L56.25 1.5C 71.3688 1.5 84.2735 6.845299 94.964096 17.535904L94.964096 17.535904L94.964096 17.535904C 105.6547 28.226501 111 41.131203 111 56.25" stroke="#0082F4" stroke-width="3" fill="none" />
    <path id=""  transform="matrix(1 0 0 -1 0 112)"  d="M51.112724 70.2612C 52.7883 70.8756 54.525524 71.18145 56.258476 71.181305L56.258476 71.181305L56.258476 71.181305C 67.102646 71.18077 74.37038 59.857803 69.789825 49.97467L69.789825 49.97467L69.789825 49.97467C 66.3297 42.509026 57.440773 39.250046 49.97467 42.7101L49.97467 42.7101L49.97467 42.7101C 40.483124 47.109154 38.331078 59.75715 45.92235 67.02765L45.92235 67.02765L45.92235 67.02765C 46.272453 67.36313 46.828274 67.35105 47.163525 67.00087L47.163525 67.00087L47.163525 67.00087C 47.498848 66.65085 47.48685 66.0951 47.13675 65.75977L47.13675 65.75977L47.13675 65.75977C 40.443073 59.348625 42.333603 48.186523 50.71283 44.303024L50.71283 44.303024L50.71283 44.303024C 57.30075 41.25 65.14372 44.12535 68.19675 50.712975L68.19675 50.712975L68.19675 50.712975C 71.24985 57.300373 68.37443 65.14372 61.7868 68.19682L61.7868 68.19682L61.7868 68.19682C 58.59555 69.6759 55.019325 69.82358 51.716778 68.612854L51.716778 68.612854L51.716778 68.612854C 51.261673 68.4462 50.7573 68.67975 50.590347 69.13485L50.590347 69.13485L50.590347 69.13485C 50.4237 69.5901 50.6574 70.094406 51.112724 70.2612zM61.626823 59.8725C 61.851448 59.8725 62.076225 59.786774 62.247604 59.6154L62.247604 59.6154L64.99215 56.870697C 65.33475 56.528023 65.33498 55.972126 64.99215 55.629227L64.99215 55.629227L62.247604 52.8846C 61.904778 52.541924 61.349022 52.541924 61.0062 52.8846L61.0062 52.8846L61.0062 52.8846C 60.6633 53.2275 60.6633 53.783325 61.0062 54.12615L61.0062 54.12615L63.13005 56.24985L63.13005 56.24985L61.0062 58.373695L61.0062 58.373695L61.0062 58.373695C 60.451275 58.928776 60.851852 59.8725 61.626823 59.8725zM51.384148 52.88475C 51.041473 52.54215 50.485725 52.542076 50.142754 52.88475L50.142754 52.88475L47.3982 55.629303C 47.0556 55.971977 47.055374 56.527874 47.3982 56.870773L47.3982 56.870773L50.142754 59.6154C 50.485725 59.95815 51.041397 59.958076 51.384148 59.6154L51.384148 59.6154L51.384148 59.6154C 51.72705 59.2725 51.72705 58.716675 51.384148 58.373924L51.384148 58.373924L49.2603 56.25015L49.2603 56.25015L51.384148 54.12645L51.384148 54.12645L51.384148 54.12645C 51.72705 53.783398 51.72705 53.22765 51.384148 52.88475zM54.812027 60.425926L54.812027 60.425926L54.812027 60.425926L59.20125 52.964325L59.20125 52.964325L59.20125 52.964325C 59.44703 52.54635 59.3076 52.0083 58.8897 51.762527L58.8897 51.762527L58.8897 51.762527C 58.47195 51.516827 57.9339 51.656174 57.687973 52.074074L57.687973 52.074074L53.29875 59.535748C 53.05297 59.95365 53.1924 60.4917 53.6103 60.737473L53.6103 60.737473L53.6103 60.737473C 54.02835 60.983246 54.566322 60.843674 54.812027 60.425926zM80.8215 66.190575L80.8215 66.190575L80.8215 66.190575L77.145004 72.559494L77.145004 72.559494L77.145004 72.559494C 76.926 72.938324 76.46175 73.0983 76.056 72.93458L76.056 72.93458L70.643105 70.74953C 70.193474 70.5681 69.97612 70.056595 70.15762 69.60698L70.15762 69.60698L70.15762 69.60698C 70.33913 69.157196 70.85055 68.93985 71.30025 69.121574L71.30025 69.121574L76.00575 71.02103L76.00575 71.02103L78.919495 65.9733L78.919495 65.9733L74.92718 62.852104L74.92718 62.852104L74.92718 62.852104C 74.640526 62.628 74.52195 62.250526 74.62868 61.902824L74.62868 61.902824L74.62868 61.902824C 75.734245 58.302826 75.777 54.334953 74.62868 50.597404L74.62868 50.597404L74.62868 50.597404C 74.52195 50.249702 74.640526 49.872223 74.92718 49.648125L74.92718 49.648125L78.919495 46.526924L78.919495 46.526924L76.00575 41.479202L76.00575 41.479202L71.30025 43.378654L71.30025 43.378654L71.30025 43.378654C 70.96283 43.515076 70.57657 43.428894 70.32877 43.162506L70.32877 43.162506L70.32877 43.162506C 67.68615 40.321045 64.30297 38.36595 60.545097 37.508545L60.545097 37.508545L60.545097 37.508545C 60.190125 37.427246 59.922005 37.135498 59.87115 36.77475L59.87115 36.77475L59.164272 31.755753L59.164272 31.755753L59.164272 31.755753L59.164272 31.755753L53.335728 31.755753L53.335728 31.755753L52.62885 36.77475L52.62885 36.77475L52.62885 36.77475C 52.577995 37.135498 52.309875 37.427246 51.954903 37.508324L51.954903 37.508324L51.954903 37.508324C 48.196953 38.365723 44.81385 40.3209 42.171223 43.162277L42.171223 43.162277L42.171223 43.162277C 41.923424 43.428673 41.537174 43.514847 41.19975 43.378426L41.19975 43.378426L36.4944 41.47905L36.4944 41.47905L33.580048 46.526703L33.580048 46.526703L37.57275 49.647896L37.57275 49.647896L37.57275 49.647896C 37.859325 49.872 37.977974 50.249474 37.871174 50.597176L37.871174 50.597176L37.871174 50.597176C 36.7653 54.19725 36.723076 58.165047 37.871174 61.902596L37.871174 61.902596L37.871174 61.902596C 37.977974 62.250378 37.859325 62.62785 37.57275 62.851875L37.57275 62.851875L33.580048 65.973076L33.580048 65.973076L36.4944 71.0208L36.4944 71.0208L41.19975 69.12135L41.19975 69.12135L41.19975 69.12135C 41.537174 68.984924 41.923576 69.0711 42.171223 69.3375L42.171223 69.3375L42.171223 69.3375C 44.81385 72.178955 48.19703 74.13405 51.954903 74.991455L51.954903 74.991455L51.954903 74.991455C 52.309875 75.07245 52.577995 75.3642 52.62885 75.724945L52.62885 75.724945L53.335728 80.744095L53.335728 80.744095L53.335728 80.744095L53.335728 80.744095L59.164272 80.744095L59.164272 80.744095L59.87115 75.724945L59.87115 75.724945L59.87115 75.724945C 59.922005 75.36435 60.190125 75.0726 60.545097 74.991455L60.545097 74.991455L60.545097 74.991455C 62.6028 74.522026 64.55872 73.7184 66.35835 72.6033L66.35835 72.6033L66.35835 72.6033C 66.770775 72.348145 67.311676 72.47528 67.5669 72.88718L67.5669 72.88718L67.5669 72.88718C 67.822205 73.2993 67.69515 73.8405 67.2831 74.09587L67.2831 74.09587L67.2831 74.09587C 65.491425 75.206024 63.55755 76.03328 61.52677 76.559326L61.52677 76.559326L60.796497 81.74438C 60.735523 82.1775 60.364723 82.49977 59.92725 82.49977L59.92725 82.49977L59.92725 82.49977L59.92725 82.49977L52.572975 82.49977L52.572975 82.49977L52.572975 82.49977C 52.135498 82.49977 51.7647 82.1775 51.703728 81.74438L51.703728 81.74438L50.97345 76.559326C 47.30205 75.60922 43.9809 73.68997 41.3055 70.97197L41.3055 70.97197L36.444374 72.93428C 36.0387 73.098145 35.5743 72.9381 35.355526 72.559204L35.355526 72.559204L31.67835 66.1902C 31.4595 65.8113 31.55325 65.329124 31.897873 65.05965L31.897873 65.05965L36.023247 61.83465C 35.0196 58.192947 35.019375 54.307274 36.023247 50.664677L36.023247 50.664677L31.897873 47.439674C 31.55325 47.170197 31.4595 46.688026 31.67835 46.309128L31.67835 46.309128L35.355526 39.940125C 35.5743 39.561226 36.03855 39.401253 36.444374 39.565125L36.444374 39.565125L41.3055 41.527428C 43.9809 38.80935 47.30205 36.890244 50.97345 35.940002L50.97345 35.940002L51.703728 30.755249C 51.764626 30.322502 52.135353 30 52.5729 30L52.5729 30L52.5729 30L52.5729 30L59.9271 30L59.9271 30L59.9271 30C 60.364647 30 60.735374 30.322502 60.796425 30.755249L60.796425 30.755249L61.526627 35.94075C 65.19803 36.890244 68.51925 38.8098 71.19458 41.527878L71.19458 41.527878L76.056 39.5655C 76.46175 39.401924 76.926 39.5616 77.145004 39.940575L77.145004 39.940575L80.8215 46.309578C 81.0405 46.688477 80.94675 47.170654 80.6025 47.440125L80.6025 47.440125L76.47675 50.665123C 77.48025 54.306828 77.481 58.192497 76.47675 61.8351L76.47675 61.8351L80.6025 65.060104C 80.94675 65.3295 81.0405 65.81152 80.8215 66.190575z" stroke="#FFFFFF" stroke-width="1" fill="#0082F4" fill-rule="nonzero" />
	</g>
</g>
</svg>