<?xml version="1.0" standalone="no"?>
<!DOCTYPE svg PUBLIC "-//W3C//DTD SVG 1.0//EN" "http://www.w3.org/TR/2001/REC-SVG-20010904/DTD/svg10.dtd">
<svg xmlns="http://www.w3.org/2000/svg" xmlns:xlink="http://www.w3.org/1999/xlink" id="body_2" width="149" height="149">

<defs>
    <clipPath  id="1">

    <path id=""  clip-rule="evenodd" transform="matrix(1 0 0 1 0 0)"  d="M0 112L0 -0.5L0 -0.5L112.5 -0.5L112.5 -0.5L112.5 112L112.5 112L0 112z" />    </clipPath>
</defs>

<g transform="matrix(1.3333 0 0 1.3333 0 0)">
	<g clip-path="url(#1)" >
    <path id=""  transform="matrix(1 0 0 -1 0 112)"  d="M111 56.25C 111 26.012253 86.48775 1.5 56.25 1.5L56.25 1.5L56.25 1.5C 26.012402 1.5 1.5 26.012253 1.5 56.25L1.5 56.25L1.5 56.25C 1.5 86.487595 26.012402 111 56.25 111L56.25 111L56.25 111C 86.48775 111 111 86.487595 111 56.25z" stroke="#0082F4" stroke-width="3" fill="none" />
    <path id=""  transform="matrix(1 0 0 -1 0 112)"  d="M66.631874 47.1306L66.631874 47.1306L66.631874 47.1306L61.065 41.4813L61.065 41.4813L58.020973 44.563354L58.020973 44.563354L58.020973 44.563354C 57.153603 45.446106 56.658897 46.628555 56.639175 47.865974L56.639175 47.865974L56.639175 47.865974C 56.619522 49.1034 57.076347 50.301003 57.91515 51.2109L57.91515 51.2109L57.91515 51.2109C 60.562576 52.098747 63.080624 53.333324 65.403824 54.882446L65.403824 54.882446L65.403824 54.882446C 65.344955 54.25515 65.42475 53.62252 65.63753 53.029503L65.63753 53.029503L65.63753 53.029503C 65.850296 52.436474 66.1908 51.897377 66.635025 51.450523L66.635025 51.450523L66.635025 51.450523C 67.20697 50.877 67.5279 50.099846 67.5273 49.289852L67.5273 49.289852L67.5273 49.289852C 67.5267 48.47985 67.20465 47.703156 66.631874 47.13037L66.631874 47.13037L66.631874 47.13037L66.631874 47.13037L66.631874 47.1306zM55.96057 51.898647L55.96057 51.898647L55.96057 51.898647L49.443523 58.415703L49.443523 58.415703L49.443523 58.415703C 49.55288 58.802628 49.670174 59.187073 49.795498 59.56905L49.795498 59.56905L49.795498 59.56905C 49.79918 59.5728 49.803 59.576027 49.80667 59.579327L49.80667 59.579327L49.800827 59.585175C 51.28238 64.070854 53.772377 68.15715 57.07965 71.5302L57.07965 71.5302L57.07965 71.5302C 60.387 74.90333 64.4235 77.47335 68.87903 79.04288L68.87903 79.04288L68.87903 79.04288C 69.74895 79.34798 70.62923 79.61212 71.51993 79.83533L71.51993 79.83533L71.51993 79.83533C 72.84788 77.313675 74.912926 75.25673 77.43975 73.938675L77.43975 73.938675L77.43975 73.938675C 74.808 63.436874 66.71602 54.8775 55.96057 51.898647zM51.765827 49.487854L51.765827 49.487854L51.765827 49.487854L47.117775 54.13575L47.117775 54.13575L51.132523 54.986855L51.132523 54.986855L52.730473 53.389126L52.730473 53.389126L51.765827 49.487854zM48.164326 48.516075C 48.077625 48.20865 47.901978 47.933624 47.6595 47.725647L47.6595 47.725647L47.6595 47.725647C 47.41695 47.517677 47.11845 47.386047 46.80135 47.347122L46.80135 47.347122L44.734352 47.090775L44.734352 47.090775L44.9907 49.15725L44.9907 49.15725L44.9907 49.15725C 45.03225 49.480576 45.169426 49.784172 45.384598 50.028976L45.384598 50.028976L45.384598 50.028976C 45.59985 50.273773 45.883274 50.448677 46.19865 50.531326L46.19865 50.531326L46.19865 50.531326C 46.47525 50.6019 46.7655 50.598373 47.040302 50.521126L47.040302 50.521126L47.040302 50.521126C 47.3151 50.443947 47.5647 50.295673 47.76405 50.091373L47.76405 50.091373L47.76405 50.091373C 47.963326 49.887 48.1053 49.633797 48.17565 49.357124L48.17565 49.357124L48.17565 49.357124C 48.246002 49.08052 48.242325 48.7902 48.164852 48.515476L48.164852 48.515476L48.164326 48.516075zM42.155552 60.428776L42.155552 60.428776L42.155552 60.428776L39.073425 63.472725L39.073425 63.472725L44.72565 69.04275L44.72565 69.04275L44.72565 69.04275C 45.298126 69.61515 46.074524 69.93675 46.884148 69.93675L46.884148 69.93675L46.884148 69.93675C 47.6937 69.93675 48.4701 69.61515 49.042572 69.04275L49.042572 69.04275L49.042572 69.04275C 49.489426 68.59845 50.028603 68.2578 50.621773 68.0451L50.621773 68.0451L50.621773 68.0451C 51.215023 67.83232 51.847725 67.75267 52.475178 67.8117L52.475178 67.8117L52.475178 67.8117C 50.89635 65.4693 49.63575 62.927628 48.7263 60.2532L48.7263 60.2532L48.7263 60.2532C 47.811897 59.44612 46.625626 59.015476 45.406425 59.048096L45.406425 59.048096L45.406425 59.048096C 44.18715 59.08065 43.02555 59.573997 42.155552 60.428776zM78.3495 80.75055C 78.312 78.87938 78.10275 77.015625 77.724754 75.1827L77.724754 75.1827L77.724754 75.1827C 75.64425 76.335526 73.92683 78.045746 72.76515 80.12108L72.76515 80.12108L72.76515 80.12108C 74.60325 80.50237 76.472244 80.71305 78.3495 80.75055zM67.05532 56.060474C 70.9497 59.0319 74.1063 62.8614 76.2795 67.25145L76.2795 67.25145L76.2795 67.25145C 78.452995 71.641426 79.58475 76.473526 79.58625 81.37208L79.58625 81.37208L79.58625 81.37208C 79.58625 81.53528 79.520996 81.69173 79.40625 81.807076L79.40625 81.807076L79.40625 81.807076C 79.29075 81.9225 79.134 81.9873 78.9705 81.9873L78.9705 81.9873L78.9705 81.9873C 71.88907 81.9888 65.01 79.6233 59.426926 75.2667L59.426926 75.2667L59.426926 75.2667C 57.271576 73.58805 55.3386 71.64203 53.674427 69.475494L53.674427 69.475494L53.674427 69.475494C 53.0892 69.1164 52.40033 68.9643 51.718277 69.043655L51.718277 69.043655L51.718277 69.043655C 51.036224 69.123 50.400673 69.42908 49.9134 69.9129L49.9134 69.9129L49.9134 69.9129C 49.110752 70.71562 48.0222 71.166824 46.887 71.16735L46.887 71.16735L46.887 71.16735C 45.7518 71.16795 44.662872 70.71788 43.859325 69.91597L43.859325 69.91597L37.7655 63.9114C 37.707523 63.854176 37.661476 63.785995 37.63005 63.71085L37.63005 63.71085L37.63005 63.71085C 37.59855 63.635628 37.582428 63.554924 37.582428 63.473476L37.582428 63.473476L37.582428 63.473476C 37.582428 63.39195 37.59855 63.311325 37.63005 63.2361L37.63005 63.2361L37.63005 63.2361C 37.661476 63.16095 37.707523 63.092777 37.7655 63.035553L37.7655 63.035553L41.291252 59.553303C 42.181126 58.67925 43.3191 58.101074 44.549774 57.897675L44.549774 57.897675L44.549774 57.897675C 45.78045 57.694347 47.0439 57.8757 48.1677 58.417046L48.1677 58.417046L48.1677 58.417046C 48.165676 58.409477 48.16343 58.402122 48.161327 58.394623L48.161327 58.394623L48.161327 58.394623C 48.133125 58.29015 48.132973 58.180126 48.160873 58.075573L48.160873 58.075573L48.160873 58.075573C 48.188774 57.971024 48.243748 57.8757 48.32025 57.799126L48.32025 57.799126L50.09475 56.024403L50.09475 56.024403L45.75345 55.104298L45.75345 55.104298L45.75345 55.104298C 45.645073 55.081352 45.544876 55.029602 45.4635 54.95445L45.4635 54.95445L45.4635 54.95445C 45.382126 54.879303 45.322575 54.7836 45.291077 54.6774L45.291077 54.6774L45.291077 54.6774C 45.259575 54.571278 45.257324 54.45855 45.28455 54.35115L45.28455 54.35115L45.28455 54.35115C 45.311775 54.243828 45.3675 54.145798 45.4458 54.06742L45.4458 54.06742L47.629875 51.883354C 47.136974 52.17832 46.60058 52.393578 46.04055 52.521297L46.04055 52.521297L46.04055 52.521297C 45.86235 52.561577 45.6837 52.593075 45.511124 52.6146L45.511124 52.6146L45.511124 52.6146C 45.2952 52.64205 45.077774 52.6566 44.860123 52.658173L44.860123 52.658173L44.860123 52.658173C 44.140053 52.664326 43.425972 52.5264 42.759975 52.25257L42.759975 52.25257L42.759975 52.25257C 42.093975 51.978752 41.489475 51.5745 40.98195 51.063675L40.98195 51.063675L40.98195 51.063675C 40.457924 50.54827 40.0419 49.933502 39.758175 49.255424L39.758175 49.255424L39.758175 49.255424C 39.474525 48.577274 39.328873 47.849403 39.32985 47.114395L39.32985 47.114395L39.32985 47.114395C 39.329777 46.953903 39.392475 46.799698 39.504524 46.6848L39.504524 46.6848L39.504524 46.6848C 39.616577 46.569824 39.76905 46.503227 39.929474 46.499176L39.929474 46.499176L40.3935 46.487328C 39.495525 45.244347 39.118427 43.699875 39.342377 42.182846L39.342377 42.182846L39.342377 42.182846C 39.3702 42.04335 39.445724 41.917877 39.5559 41.827873L39.5559 41.827873L39.5559 41.827873C 39.666077 41.73787 39.804077 41.688896 39.94635 41.689423L39.94635 41.689423L39.94635 41.689423L39.94635 41.689423L41.627174 41.689423L41.627174 41.689423L41.627174 41.689423C 41.790302 41.689423 41.946823 41.754303 42.062176 41.86965L42.062176 41.86965L42.062176 41.86965C 42.177525 41.985 42.2424 42.141525 42.2424 42.30465L42.2424 42.30465L42.2424 42.30465C 42.2424 42.46785 42.177525 42.624374 42.062176 42.739723L42.062176 42.739723L42.062176 42.739723C 41.946823 42.855072 41.790302 42.919952 41.627174 42.919952L41.627174 42.919952L41.627174 42.919952L41.627174 42.919952L40.506374 42.919952L40.506374 42.919952L40.506374 42.919952C 40.488976 43.74022 40.66905 45.294525 42.158775 46.6092L42.158775 46.6092L42.158775 46.6092C 42.251476 46.690872 42.317326 46.798576 42.347847 46.918274L42.347847 46.918274L42.347847 46.918274C 42.3783 47.03798 42.371998 47.164047 42.329777 47.28015L42.329777 47.28015L42.329777 47.28015C 42.28755 47.39618 42.211273 47.496826 42.110924 47.5689L42.110924 47.5689L42.110924 47.5689C 42.010574 47.640976 41.890877 47.6811 41.767426 47.684097L41.767426 47.684097L40.6026 47.713425C 40.734226 48.653625 41.172375 49.52407 41.849174 50.189926L41.849174 50.189926L41.849174 50.189926C 42.23835 50.581573 42.701027 50.892525 43.210724 51.104927L43.210724 51.104927L43.210724 51.104927C 43.720352 51.3174 44.26695 51.427048 44.8191 51.427723L44.8191 51.427723L44.8191 51.427723L44.8191 51.427723L44.8512 51.427723L44.8512 51.427723L44.8512 51.427723C 44.949074 51.427048 45.047325 51.421875 45.1455 51.414375L45.1455 51.414375L45.1455 51.414375C 44.769753 51.1929 44.4501 50.887802 44.21145 50.522774L44.21145 50.522774L44.21145 50.522774C 43.972725 50.15775 43.821377 49.742626 43.769173 49.30965L43.769173 49.30965L43.416374 46.459045C 43.405647 46.372574 43.413452 46.284744 43.439247 46.2015L43.439247 46.2015L43.439247 46.2015C 43.464973 46.118248 43.508175 46.041374 43.565926 45.97605L43.565926 45.97605L43.565926 45.97605C 43.623676 45.91073 43.694626 45.85845 43.774048 45.8226L43.774048 45.8226L43.774048 45.8226C 43.85355 45.786827 43.939724 45.768227 44.026875 45.768227L44.026875 45.768227L44.026875 45.768227C 44.052147 45.768295 44.077347 45.7698 44.102474 45.772873L44.102474 45.772873L46.953 46.125824C 47.386353 46.179146 47.80155 46.331474 48.166573 46.570877L48.166573 46.570877L48.166573 46.570877C 48.5316 46.810272 48.836777 47.130447 49.058327 47.506577L49.058327 47.506577L49.058327 47.506577C 49.067173 47.39572 49.07325 47.28398 49.0734 47.171402L49.0734 47.171402L49.0734 47.171402C 49.074898 46.612274 48.965477 46.058327 48.7515 45.541794L48.7515 45.541794L48.7515 45.541794C 48.53752 45.0252 48.223274 44.556152 47.826824 44.161804L47.826824 44.161804L47.826824 44.161804C 47.768475 44.10495 47.7219 44.03708 47.68995 43.962074L47.68995 43.962074L47.68995 43.962074C 47.657997 43.887146 47.641277 43.806526 47.640675 43.725075L47.640675 43.725075L47.640675 43.725075C 47.64015 43.643547 47.655823 43.562775 47.68672 43.487396L47.68672 43.487396L47.68672 43.487396C 47.717625 43.41195 47.763226 43.343475 47.8209 43.285873L47.8209 43.285873L47.8209 43.285873C 47.8785 43.228203 47.946976 43.182602 48.02235 43.151703L48.02235 43.151703L48.02235 43.151703C 48.0978 43.120728 48.178574 43.10505 48.2601 43.10565L48.2601 43.10565L48.2601 43.10565C 48.34155 43.10617 48.422096 43.122902 48.4971 43.154854L48.4971 43.154854L48.4971 43.154854C 48.5721 43.1868 48.639977 43.2333 48.696823 43.291725L48.696823 43.291725L48.696823 43.291725C 49.287903 43.882355 49.736176 44.60025 50.007225 45.39067L50.007225 45.39067L50.007225 45.39067C 50.27835 46.181023 50.365128 47.02298 50.260952 47.85202L50.260952 47.85202L50.260952 47.85202C 50.2404 48.02363 50.21048 48.197998 50.17215 48.370728L50.17215 48.370728L50.17215 48.370728C 50.045174 48.939526 49.82805 49.48433 49.528873 49.984577L49.528873 49.984577L51.666527 47.847153C 51.743626 47.77005 51.839775 47.714844 51.945152 47.68718L51.945152 47.68718L51.945152 47.68718C 52.05053 47.6595 52.161377 47.660248 52.266373 47.6895L52.266373 47.6895L52.266373 47.6895C 52.371376 47.718674 52.466778 47.775223 52.542675 47.85337L52.542675 47.85337L52.542675 47.85337C 52.618652 47.931526 52.6725 48.028427 52.698677 48.134247L52.698677 48.134247L53.746872 52.372272L53.746872 52.372272L55.342575 50.776505L55.342575 50.776505L55.342575 50.776505C 55.4187 50.70038 55.513496 50.645546 55.61745 50.617573L55.61745 50.617573L55.61745 50.617573C 55.721478 50.589523 55.830902 50.589226 55.935 50.616676L55.935 50.616676L55.935 50.616676C 55.971825 50.626953 56.00827 50.637222 56.045025 50.6475L56.045025 50.6475L56.045025 50.6475C 55.482525 49.518753 55.286247 48.24263 55.483578 46.997025L55.483578 46.997025L55.483578 46.997025C 55.6809 45.751427 56.262 44.59845 57.145798 43.698822L57.145798 43.698822L60.627747 40.151398C 60.741074 40.02825 60.89835 39.954597 61.065453 39.946274L61.065453 39.946274L61.065453 39.946274C 61.2327 39.95452 61.389977 40.028175 61.503304 40.151398L61.503304 40.151398L67.50495 46.252426C 68.307 47.057404 68.75737 48.147453 68.75737 49.283775L68.75737 49.283775L68.75737 49.283775C 68.75737 50.420174 68.307 51.510223 67.50495 52.3152L67.50495 52.3152L67.50495 52.3152C 67.024124 52.80053 66.718796 53.432327 66.63735 54.1107L66.63735 54.1107L66.63735 54.1107C 66.5559 54.789 66.70297 55.475178 67.05532 56.060474z" stroke="#FFFFFF" stroke-width="1" fill="#0082F4" fill-rule="nonzero" />
    <path id=""  transform="matrix(1 0 0 -1 0 112)"  d="M45.8124 43.034927C 45.486153 42.957672 45.151947 42.919052 44.8167 42.919876L44.8167 42.919876L44.8167 42.919876L44.8167 42.919876L43.84755 42.919876L43.84755 42.919876L43.84755 42.919876C 43.68435 42.919876 43.5279 42.855072 43.412476 42.739647L43.412476 42.739647L43.412476 42.739647C 43.297127 42.6243 43.232327 42.46785 43.232327 42.30465L43.232327 42.30465L43.232327 42.30465C 43.232327 42.14145 43.297127 41.985 43.412476 41.869576L43.412476 41.869576L43.412476 41.869576C 43.5279 41.754227 43.68435 41.689423 43.84755 41.689423L43.84755 41.689423L43.84755 41.689423L43.84755 41.689423L44.8167 41.689423L44.8167 41.689423L44.8167 41.689423C 45.248325 41.6886 45.678528 41.73855 46.09845 41.838303L46.09845 41.838303L46.09845 41.838303C 46.25715 41.876328 46.39425 41.97577 46.4796 42.1149L46.4796 42.1149L46.4796 42.1149C 46.564873 42.253952 46.5915 42.421204 46.553474 42.579903L46.553474 42.579903L46.553474 42.579903C 46.51545 42.7386 46.416 42.8757 46.276947 42.960976L46.276947 42.960976L46.276947 42.960976C 46.137825 43.046326 45.970577 43.072952 45.811874 43.034927L45.811874 43.034927L45.811874 43.034927L45.811874 43.034927L45.8124 43.034927z" stroke="#FFFFFF" stroke-width="1" fill="#0082F4" fill-rule="nonzero" />
    <path id=""  transform="matrix(1 0 0 -1 0 112)"  d="M70.57065 55.74608C 70.7139 55.745926 70.852646 55.79595 70.962746 55.88745L70.962746 55.88745L70.962746 55.88745C 71.4012 56.25045 71.835976 56.6307 72.254776 57.017475L72.254776 57.017475L72.254776 57.017475C 72.31507 57.072 72.363976 57.137924 72.39863 57.2115L72.39863 57.2115L72.39863 57.2115C 72.43327 57.285072 72.45308 57.364723 72.45675 57.445946L72.45675 57.445946L72.45675 57.445946C 72.46043 57.527176 72.4479 57.608322 72.420074 57.684753L72.420074 57.684753L72.420074 57.684753C 72.39218 57.7611 72.34943 57.831223 72.294304 57.891003L72.294304 57.891003L72.294304 57.891003C 72.239174 57.950775 72.17273 57.999 72.09877 58.032898L72.09877 58.032898L72.09877 58.032898C 72.0249 58.066875 71.94502 58.085777 71.86372 58.088623L71.86372 58.088623L71.86372 58.088623C 71.7825 58.091476 71.7015 58.0782 71.62538 58.04955L71.62538 58.04955L71.62538 58.04955C 71.549255 58.020897 71.479576 57.977474 71.4204 57.921745L71.4204 57.921745L71.4204 57.921745C 71.01735 57.549828 70.599075 57.184273 70.1775 56.83485L70.1775 56.83485L70.1775 56.83485C 70.08 56.754074 70.009796 56.645176 69.976425 56.523L69.976425 56.523L69.976425 56.523C 69.943054 56.4009 69.94823 56.271378 69.9912 56.152275L69.9912 56.152275L69.9912 56.152275C 70.03417 56.033173 70.11278 55.9302 70.21643 55.857452L70.21643 55.857452L70.21643 55.857452C 70.320076 55.7847 70.443596 55.745697 70.570274 55.745773L70.570274 55.745773L70.57065 55.74608z" stroke="#FFFFFF" stroke-width="1" fill="#0082F4" fill-rule="nonzero" />
    <path id=""  transform="matrix(1 0 0 -1 0 112)"  d="M80.7315 71.9508C 80.65425 71.9742 80.57325 71.98207 80.493 71.97412L80.493 71.97412L80.493 71.97412C 80.41275 71.966095 80.334 71.94232 80.2635 71.90422L80.2635 71.90422L80.2635 71.90422C 80.192245 71.86605 80.12925 71.814224 80.0775 71.75175L80.0775 71.75175L80.0775 71.75175C 80.026505 71.6892 79.98825 71.61728 79.965004 71.53987L79.965004 71.53987L79.965004 71.53987C 79.44675 69.828 78.77925 68.16502 77.96925 66.57022L77.96925 66.57022L77.96925 66.57022C 77.6745 65.98958 77.35575 65.4102 77.0235 64.84837L77.0235 64.84837L77.0235 64.84837C 76.614746 64.15822 76.17375 63.475197 75.711 62.818123L75.711 62.818123L75.711 62.818123C 74.97758 61.776672 74.1801 60.781647 73.32338 59.8389L73.32338 59.8389L73.32338 59.8389C 73.21365 59.718075 73.15635 59.5587 73.164154 59.39572L73.164154 59.39572L73.164154 59.39572C 73.17195 59.232674 73.24417 59.07952 73.36493 58.969723L73.36493 58.969723L73.36493 58.969723C 73.48568 58.86 73.64513 58.802704 73.8081 58.8105L73.8081 58.8105L73.8081 58.8105C 73.97107 58.8183 74.1243 58.890526 74.234024 59.011276L74.234024 59.011276L74.234024 59.011276C 75.12525 59.991978 75.954 61.0269 76.71675 62.1102L76.71675 62.1102L76.71675 62.1102C 77.1975 62.793304 77.65725 63.5037 78.08175 64.221825L78.08175 64.221825L78.08175 64.221825C 78.42825 64.806305 78.759 65.40892 79.06575 66.01305L79.06575 66.01305L79.06575 66.01305C 79.90875 67.67235 80.60325 69.40268 81.1425 71.18385L81.1425 71.18385L81.1425 71.18385C 81.18975 71.34 81.1725 71.50853 81.096 71.6523L81.096 71.6523L81.096 71.6523C 81.01875 71.79615 80.8875 71.90347 80.7315 71.9508z" stroke="#FFFFFF" stroke-width="1" fill="#0082F4" fill-rule="nonzero" />
    <path id=""  transform="matrix(1 0 0 -1 0 112)"  d="M32.1522 56.81295C 32.23305 56.812798 32.313072 56.828697 32.387703 56.859596L32.387703 56.859596L32.387703 56.859596C 32.462326 56.890495 32.530125 56.935875 32.5872 56.9931L32.5872 56.9931L33.05835 57.464252C 33.17115 57.580124 33.233772 57.735752 33.232723 57.897526L33.232723 57.897526L33.232723 57.897526C 33.231598 58.059227 33.166874 58.214024 33.052574 58.3284L33.052574 58.3284L33.052574 58.3284C 32.938198 58.442772 32.7834 58.5075 32.6217 58.50862L32.6217 58.50862L32.6217 58.50862C 32.46 58.509674 32.3043 58.44705 32.188423 58.334324L32.188423 58.334324L31.716751 57.863102C 31.630726 57.777077 31.57215 57.6675 31.54845 57.54818L31.54845 57.54818L31.54845 57.54818C 31.524677 57.42885 31.5369 57.3051 31.583477 57.192753L31.583477 57.192753L31.583477 57.192753C 31.629976 57.080326 31.708801 56.984245 31.809975 56.916676L31.809975 56.916676L31.809975 56.916676C 31.911148 56.849022 32.030025 56.81295 32.15175 56.81295L32.15175 56.81295L32.15175 56.81295L32.15175 56.81295L32.1522 56.81295z" stroke="#FFFFFF" stroke-width="1" fill="#0082F4" fill-rule="nonzero" />
    <path id=""  transform="matrix(1 0 0 -1 0 112)"  d="M34.395073 58.80075L34.395073 58.80075L34.395073 58.80075L36.50025 60.905853L36.50025 60.905853L36.50025 60.905853C 36.5574 60.962997 36.602776 61.0308 36.633675 61.1055L36.633675 61.1055L36.633675 61.1055C 36.664574 61.180126 36.680473 61.260147 36.68055 61.340927L36.68055 61.340927L36.68055 61.340927C 36.68055 61.4217 36.664574 61.501724 36.633675 61.576347L36.633675 61.576347L36.633675 61.576347C 36.602776 61.65105 36.557476 61.71885 36.500324 61.775997L36.500324 61.775997L36.500324 61.775997C 36.443176 61.83315 36.375374 61.87845 36.30075 61.909348L36.30075 61.909348L36.30075 61.909348C 36.226124 61.940247 36.146103 61.956223 36.065327 61.956223L36.065327 61.956223L36.065327 61.956223C 35.984474 61.956223 35.904526 61.940323 35.829826 61.909424L35.829826 61.909424L35.829826 61.909424C 35.7552 61.87845 35.6874 61.83315 35.63025 61.775997L35.63025 61.775997L33.52515 59.670902C 33.46725 59.613976 33.4212 59.546097 33.389626 59.47125L33.389626 59.47125L33.389626 59.47125C 33.35805 59.3964 33.341625 59.31607 33.341324 59.234848L33.341324 59.234848L33.341324 59.234848C 33.34095 59.153625 33.3567 59.07315 33.3876 58.998077L33.3876 58.998077L33.3876 58.998077C 33.418575 58.923004 33.464024 58.85475 33.521477 58.797302L33.521477 58.797302L33.521477 58.797302C 33.57885 58.739853 33.647102 58.6944 33.722176 58.66343L33.722176 58.66343L33.722176 58.66343C 33.79725 58.632523 33.877724 58.6167 33.95895 58.617073L33.95895 58.617073L33.95895 58.617073C 34.040176 58.61738 34.1205 58.633797 34.19535 58.6653L34.19535 58.6653L34.19535 58.6653C 34.2702 58.6968 34.338074 58.74285 34.395073 58.80075z" stroke="#FFFFFF" stroke-width="1" fill="#0082F4" fill-rule="nonzero" />
    <path id=""  transform="matrix(1 0 0 -1 0 112)"  d="M32.644127 54.69345C 32.759552 54.5781 32.916 54.51323 33.0792 54.51323L33.0792 54.51323L33.0792 54.51323C 33.242325 54.51323 33.39885 54.5781 33.5142 54.69345L33.5142 54.69345L35.98875 57.168076C 36.0459 57.225227 36.0912 57.2931 36.1221 57.36773L36.1221 57.36773L36.1221 57.36773C 36.153076 57.44235 36.168976 57.522377 36.168976 57.60315L36.168976 57.60315L36.168976 57.60315C 36.168976 57.684002 36.153 57.76395 36.1221 57.838654L36.1221 57.838654L36.1221 57.838654C 36.0912 57.913273 36.045826 57.98107 35.98875 58.038223L35.98875 58.038223L35.98875 58.038223C 35.9316 58.095303 35.863724 58.14067 35.7891 58.171577L35.7891 58.171577L35.7891 58.171577C 35.714478 58.202477 35.63445 58.218372 35.553673 58.218372L35.553673 58.218372L35.553673 58.218372C 35.4729 58.218372 35.392876 58.202477 35.31825 58.171497L35.31825 58.171497L35.31825 58.171497C 35.243553 58.1406 35.17575 58.095303 35.1186 58.03815L35.1186 58.03815L32.64405 55.5636C 32.5869 55.506447 32.541603 55.438576 32.5107 55.363953L32.5107 55.363953L32.5107 55.363953C 32.4798 55.289326 32.463825 55.209297 32.463898 55.128525L32.463898 55.128525L32.463898 55.128525C 32.463898 55.047672 32.4798 54.96765 32.5107 54.89302L32.5107 54.89302L32.5107 54.89302C 32.541676 54.8184 32.586975 54.750526 32.644127 54.69345z" stroke="#FFFFFF" stroke-width="1" fill="#0082F4" fill-rule="nonzero" />
    <path id=""  transform="matrix(1 0 0 -1 0 112)"  d="M36.763424 58.198204C 36.8442 58.198128 36.924225 58.214024 36.998848 58.244923L36.998848 58.244923L36.998848 58.244923C 37.07355 58.275826 37.14135 58.321198 37.198425 58.37835L37.198425 58.37835L38.113274 59.29313C 38.171177 59.35005 38.217224 59.417923 38.248726 59.492775L38.248726 59.492775L38.248726 59.492775C 38.2803 59.567627 38.296726 59.64795 38.297024 59.729176L38.297024 59.729176L38.297024 59.729176C 38.2974 59.810402 38.281647 59.890877 38.250748 59.96595L38.250748 59.96595L38.250748 59.96595C 38.219776 60.0411 38.174324 60.109276 38.116875 60.166725L38.116875 60.166725L38.116875 60.166725C 38.059498 60.224174 37.99125 60.2697 37.916176 60.300602L37.916176 60.300602L37.916176 60.300602C 37.8411 60.331573 37.760624 60.34732 37.6794 60.34695L37.6794 60.34695L37.6794 60.34695C 37.598175 60.34665 37.51785 60.330223 37.443 60.298725L37.443 60.298725L37.443 60.298725C 37.36815 60.267227 37.300274 60.221176 37.243275 60.163273L37.243275 60.163273L36.328426 59.24843C 36.2424 59.1624 36.183823 59.05275 36.160126 58.933426L36.160126 58.933426L36.160126 58.933426C 36.136425 58.814102 36.148575 58.690422 36.195152 58.577995L36.195152 58.577995L36.195152 58.577995C 36.241726 58.465652 36.32055 58.369576 36.42165 58.301926L36.42165 58.301926L36.42165 58.301926C 36.522827 58.23435 36.641777 58.198277 36.763424 58.198204z" stroke="#FFFFFF" stroke-width="1" fill="#0082F4" fill-rule="nonzero" />
    <path id=""  transform="matrix(1 0 0 -1 0 112)"  d="M34.245224 53.937973L34.245224 53.937973L34.245224 53.937973L31.511475 51.20452L31.511475 51.20452L31.511475 51.20452C 31.397701 51.0888 31.334175 50.932877 31.33485 50.770576L31.33485 50.770576L31.33485 50.770576C 31.335526 50.608276 31.40025 50.4528 31.515 50.337975L31.515 50.337975L31.515 50.337975C 31.629826 50.22323 31.785301 50.1585 31.947601 50.15782L31.947601 50.15782L31.947601 50.15782C 32.1099 50.15715 32.265823 50.220673 32.38155 50.33445L32.38155 50.33445L35.115074 53.067978C 35.1729 53.1249 35.21895 53.192772 35.250526 53.267624L35.250526 53.267624L35.250526 53.267624C 35.28203 53.342476 35.29845 53.4228 35.29883 53.504025L35.29883 53.504025L35.29883 53.504025C 35.299126 53.58525 35.283375 53.665726 35.252476 53.740803L35.252476 53.740803L35.252476 53.740803C 35.2215 53.815876 35.176052 53.884125 35.1186 53.941574L35.1186 53.941574L35.1186 53.941574C 35.06115 53.999027 34.992973 54.04448 34.917824 54.07545L34.917824 54.07545L34.917824 54.07545C 34.84275 54.10635 34.762276 54.1221 34.681053 54.121727L34.681053 54.121727L34.681053 54.121727C 34.599823 54.12143 34.5195 54.105 34.44465 54.0735L34.44465 54.0735L34.44465 54.0735C 34.3698 54.041924 34.301926 53.995872 34.245 53.937973L34.245 53.937973L34.245 53.937973L34.245 53.937973L34.245224 53.937973z" stroke="#FFFFFF" stroke-width="1" fill="#0082F4" fill-rule="nonzero" />
    <path id=""  transform="matrix(1 0 0 -1 0 112)"  d="M39.7266 58.549652C 39.611248 58.665 39.4548 58.729797 39.291603 58.729797L39.291603 58.729797L39.291603 58.729797C 39.128475 58.729797 38.972023 58.665 38.856674 58.549652L38.856674 58.549652L35.65425 55.34767C 35.59635 55.29075 35.5503 55.222878 35.5188 55.148026L35.5188 55.148026L35.5188 55.148026C 35.487225 55.073174 35.4708 54.99285 35.470497 54.911625L35.470497 54.911625L35.470497 54.911625C 35.470123 54.8304 35.485874 54.749924 35.516777 54.67485L35.516777 54.67485L35.516777 54.67485C 35.547676 54.599773 35.5932 54.531525 35.650574 54.474075L35.650574 54.474075L35.650574 54.474075C 35.708023 54.416622 35.776276 54.371178 35.85135 54.3402L35.85135 54.3402L35.85135 54.3402C 35.926426 54.3093 36.0069 54.293472 36.088127 54.29385L36.088127 54.29385L36.088127 54.29385C 36.16935 54.294147 36.249676 54.310577 36.324524 54.342075L36.324524 54.342075L36.324524 54.342075C 36.399376 54.373573 36.46725 54.419624 36.524174 54.477528L36.524174 54.477528L39.7266 57.680023C 39.841877 57.795376 39.9066 57.951748 39.9066 58.114876L39.9066 58.114876L39.9066 58.114876C 39.9066 58.277927 39.841877 58.4343 39.7266 58.549652z" stroke="#FFFFFF" stroke-width="1" fill="#0082F4" fill-rule="nonzero" />
    <path id=""  transform="matrix(1 0 0 -1 0 112)"  d="M51.83055 38.69265L51.83055 38.69265L51.83055 38.69265L51.358875 38.221573L51.358875 38.221573L51.358875 38.221573C 51.243523 38.106224 51.178722 37.9497 51.178722 37.786575L51.178722 37.786575L51.178722 37.786575C 51.178722 37.623375 51.243523 37.467003 51.358948 37.3515L51.358948 37.3515L51.358948 37.3515C 51.4743 37.236 51.63083 37.171494 51.794025 37.171494L51.794025 37.171494L51.794025 37.171494C 51.95715 37.171494 52.113678 37.236 52.229027 37.3515L52.229027 37.3515L52.7001 37.82325C 52.81395 37.938972 52.877396 38.09497 52.876724 38.25727L52.876724 38.25727L52.876724 38.25727C 52.876053 38.41957 52.81125 38.574974 52.696503 38.689728L52.696503 38.689728L52.696503 38.689728C 52.581676 38.804474 52.4262 38.869278 52.2639 38.869873L52.2639 38.869873L52.2639 38.869873C 52.1016 38.870552 51.945602 38.807022 51.82995 38.693176L51.82995 38.693176L51.83055 38.69265z" stroke="#FFFFFF" stroke-width="1" fill="#0082F4" fill-rule="nonzero" />
    <path id=""  transform="matrix(1 0 0 -1 0 112)"  d="M55.271774 42.1344L55.271774 42.1344L55.271774 42.1344L53.166603 40.029297L53.166603 40.029297L53.166603 40.029297C 53.108246 39.97245 53.061676 39.90457 53.029724 39.829575L53.029724 39.829575L53.029724 39.829575C 52.997772 39.754654 52.981052 39.674026 52.980453 39.592575L52.980453 39.592575L52.980453 39.592575C 52.979927 39.511047 52.995598 39.430275 53.026505 39.354897L53.026505 39.354897L53.026505 39.354897C 53.057404 39.27945 53.103 39.210976 53.160675 39.153374L53.160675 39.153374L53.160675 39.153374C 53.218277 39.095703 53.28675 39.050102 53.36212 39.019196L53.36212 39.019196L53.36212 39.019196C 53.437576 38.98822 53.518353 38.972626 53.599876 38.973152L53.599876 38.973152L53.599876 38.973152C 53.681328 38.97367 53.76188 38.990402 53.836876 39.022354L53.836876 39.022354L53.836876 39.022354C 53.911873 39.054306 53.97975 39.100876 54.0366 39.159225L54.0366 39.159225L56.1417 41.264404C 56.254498 41.380272 56.317123 41.535904 56.31607 41.6976L56.31607 41.6976L56.31607 41.6976C 56.31495 41.859375 56.25022 42.0141 56.13585 42.12848L56.13585 42.12848L56.13585 42.12848C 56.021545 42.24285 55.86675 42.30758 55.705048 42.3087L55.705048 42.3087L55.705048 42.3087C 55.54335 42.30983 55.38765 42.2472 55.271774 42.1344z" stroke="#FFFFFF" stroke-width="1" fill="#0082F4" fill-rule="nonzero" />
    <path id=""  transform="matrix(1 0 0 -1 0 112)"  d="M52.285652 35.052002C 52.401077 34.9365 52.557526 34.872 52.720722 34.872L52.720722 34.872L52.720722 34.872C 52.88385 34.872 53.040375 34.9365 53.155724 35.052002L53.155724 35.052002L55.630424 37.52633C 55.688774 37.583176 55.735348 37.651047 55.7673 37.72605L55.7673 37.72605L55.7673 37.72605C 55.79925 37.800972 55.81598 37.8816 55.816574 37.96305L55.816574 37.96305L55.816574 37.96305C 55.8171 38.04457 55.8015 38.12535 55.770527 38.20073L55.770527 38.20073L55.770527 38.20073C 55.739628 38.27617 55.694023 38.34465 55.636425 38.40233L55.636425 38.40233L55.636425 38.40233C 55.57875 38.459923 55.510277 38.505524 55.4349 38.5365L55.4349 38.5365L55.4349 38.5365C 55.35945 38.567398 55.27868 38.583076 55.197224 38.582474L55.197224 38.582474L55.197224 38.582474C 55.1157 38.581947 55.035152 38.56523 54.960148 38.53328L54.960148 38.53328L54.960148 38.53328C 54.885147 38.501328 54.817276 38.454826 54.760426 38.3964L54.760426 38.3964L52.2858 35.922005C 52.17045 35.806496 52.105576 35.64975 52.105576 35.487L52.105576 35.487L52.105576 35.487C 52.105576 35.3235 52.170376 35.167496 52.285652 35.052002z" stroke="#FFFFFF" stroke-width="1" fill="#0082F4" fill-rule="nonzero" />
    <path id=""  transform="matrix(1 0 0 -1 0 112)"  d="M55.97025 38.736374C 56.0274 38.67923 56.0952 38.63385 56.169903 38.60295L56.169903 38.60295L56.169903 38.60295C 56.244522 38.572052 56.324554 38.556076 56.405327 38.556076L56.405327 38.556076L56.405327 38.556076C 56.486176 38.556076 56.566124 38.572052 56.640827 38.60295L56.640827 38.60295L56.640827 38.60295C 56.715446 38.63385 56.783325 38.67923 56.8404 38.736374L56.8404 38.736374L57.755173 39.65123C 57.87052 39.76658 57.935326 39.923096 57.935326 40.086304L57.935326 40.086304L57.935326 40.086304C 57.935326 40.249496 57.87045 40.405952 57.755096 40.521378L57.755096 40.521378L57.755096 40.521378C 57.63967 40.63672 57.483154 40.701523 57.319946 40.701523L57.319946 40.701523L57.319946 40.701523C 57.156822 40.701523 57.000298 40.63665 56.884953 40.521225L56.884953 40.521225L55.97025 39.60652C 55.913097 39.549377 55.8678 39.4815 55.836903 39.406876L55.836903 39.406876L55.836903 39.406876C 55.805923 39.332253 55.790028 39.252228 55.790028 39.171448L55.790028 39.171448L55.790028 39.171448C 55.790028 39.0906 55.805923 39.010574 55.836903 38.935944L55.836903 38.935944L55.836903 38.935944C 55.8678 38.86133 55.913097 38.79345 55.97025 38.736374z" stroke="#FFFFFF" stroke-width="1" fill="#0082F4" fill-rule="nonzero" />
    <path id=""  transform="matrix(1 0 0 -1 0 112)"  d="M53.886528 34.296745L53.886528 34.296745L53.886528 34.296745L51.153076 31.563004L51.153076 31.563004L51.153076 31.563004C 51.095177 31.506004 51.049126 31.4385 51.017548 31.363503L51.017548 31.363503L51.017548 31.363503C 50.985977 31.288498 50.969547 31.208252 50.96925 31.12725L50.96925 31.12725L50.96925 31.12725C 50.96888 31.045502 50.984627 30.965256 51.0156 30.890244L51.0156 30.890244L51.0156 30.890244C 51.046497 30.815247 51.09195 30.747002 51.149403 30.689247L51.149403 30.689247L51.149403 30.689247C 51.20678 30.632248 51.275024 30.586502 51.350098 30.555748L51.350098 30.555748L51.350098 30.555748C 51.42525 30.524246 51.505726 30.5085 51.586876 30.509247L51.586876 30.509247L51.586876 30.509247C 51.6681 30.509247 51.7485 30.52575 51.823277 30.557251L51.823277 30.557251L51.823277 30.557251C 51.898125 30.588753 51.966003 30.635254 52.023 30.693L52.023 30.693L54.7566 33.426003C 54.8145 33.483 54.860474 33.551254 54.89205 33.62625L54.89205 33.62625L54.89205 33.62625C 54.92355 33.7005 54.93998 33.7815 54.94035 33.862503L54.94035 33.862503L54.94035 33.862503C 54.94065 33.943504 54.9249 34.02375 54.894 34.099503L54.894 34.099503L54.894 34.099503C 54.86303 34.1745 54.817577 34.242752 54.760124 34.29975L54.760124 34.29975L54.760124 34.29975C 54.702675 34.3575 54.6345 34.402504 54.55935 34.434006L54.55935 34.434006L54.55935 34.434006C 54.484276 34.464752 54.4038 34.4805 54.322575 34.4805L54.322575 34.4805L54.322575 34.4805C 54.24135 34.47975 54.161026 34.46325 54.086174 34.431747L54.086174 34.431747L54.086174 34.431747C 54.011322 34.400246 53.94345 34.3545 53.886528 34.296745z" stroke="#FFFFFF" stroke-width="1" fill="#0082F4" fill-rule="nonzero" />
    <path id=""  transform="matrix(1 0 0 -1 0 112)"  d="M58.498047 38.908127L58.498047 38.908127L58.498047 38.908127L55.29555 35.706L55.29555 35.706L55.29555 35.706C 55.237648 35.649002 55.191597 35.58075 55.1601 35.505753L55.1601 35.505753L55.1601 35.505753C 55.128525 35.430748 55.112175 35.350502 55.1118 35.2695L55.1118 35.2695L55.1118 35.2695C 55.111504 35.1885 55.12725 35.1075 55.15815 35.0325L55.15815 35.0325L55.15815 35.0325C 55.189125 34.957504 55.234577 34.88925 55.292027 34.832253L55.292027 34.832253L55.292027 34.832253C 55.349476 34.774498 55.41765 34.728752 55.4928 34.697998L55.4928 34.697998L55.4928 34.697998C 55.567875 34.66725 55.64835 34.651505 55.729576 34.651505L55.729576 34.651505L55.729576 34.651505C 55.8108 34.652252 55.891125 34.668747 55.965973 34.70025L55.965973 34.70025L55.965973 34.70025C 56.040825 34.73175 56.108627 34.777504 56.165623 34.83525L56.165623 34.83525L59.36805 38.03798C 59.42595 38.094894 59.472 38.162773 59.503498 38.237625L59.503498 38.237625L59.503498 38.237625C 59.535072 38.31247 59.5515 38.3928 59.551796 38.474022L59.551796 38.474022L59.551796 38.474022C 59.552177 38.555252 59.536423 38.635727 59.505524 38.7108L59.505524 38.7108L59.505524 38.7108C 59.47455 38.785873 59.4291 38.854126 59.37165 38.911575L59.37165 38.911575L59.37165 38.911575C 59.314278 38.969025 59.246025 39.01448 59.17095 39.04545L59.17095 39.04545L59.17095 39.04545C 59.09588 39.076347 59.015404 39.09218 58.934177 39.091797L58.934177 39.091797L58.934177 39.091797C 58.852947 39.0915 58.77263 39.075073 58.697777 39.04357L58.697777 39.04357L58.697777 39.04357C 58.622925 39.01207 58.555054 38.96602 58.498047 38.908127z" stroke="#FFFFFF" stroke-width="1" fill="#0082F4" fill-rule="nonzero" />
    <path id=""  transform="matrix(1 0 0 -1 0 112)"  d="M73.16888 44.592224C 72.84578 45.06082 72.4404 45.467026 71.97247 45.79103L71.97247 45.79103L71.97247 45.79103C 72.4404 46.11503 72.84578 46.521225 73.16888 46.989822L73.16888 46.989822L73.16888 46.989822C 73.491974 46.521225 73.897354 46.11503 74.36528 45.79103L74.36528 45.79103L74.36528 45.79103C 73.897354 45.467026 73.491974 45.06082 73.16888 44.592224zM75.919495 46.37445C 75.4155 46.54492 74.95703 46.82985 74.58105 47.206947L74.58105 47.206947L74.58105 47.206947C 74.205 47.58413 73.92149 48.043274 73.7526 48.548325L73.7526 48.548325L73.7526 48.548325C 73.711876 48.670876 73.6335 48.777523 73.528725 48.85305L73.528725 48.85305L73.528725 48.85305C 73.42395 48.928574 73.29802 48.9693 73.16888 48.9693L73.16888 48.9693L73.16888 48.9693C 73.03973 48.9693 72.9138 48.928574 72.80902 48.85305L72.80902 48.85305L72.80902 48.85305C 72.704254 48.777523 72.62595 48.670876 72.585144 48.548325L72.585144 48.548325L72.585144 48.548325C 72.41625 48.043274 72.13275 47.58413 71.7567 47.206947L71.7567 47.206947L71.7567 47.206947C 71.38072 46.82985 70.92248 46.54492 70.41795 46.37445L70.41795 46.37445L70.41795 46.37445C 70.29562 46.333572 70.1892 46.255203 70.11382 46.150497L70.11382 46.150497L70.11382 46.150497C 70.03845 46.0458 69.99795 45.92003 69.99795 45.79103L69.99795 45.79103L69.99795 45.79103C 69.99795 45.662025 70.03845 45.536247 70.11382 45.43155L70.11382 45.43155L70.11382 45.43155C 70.1892 45.32685 70.29562 45.24855 70.41795 45.207603L70.41795 45.207603L70.41795 45.207603C 70.92248 45.0372 71.38072 44.752274 71.7567 44.3751L71.7567 44.3751L71.7567 44.3751C 72.13275 43.997925 72.41625 43.53885 72.585144 43.03373L72.585144 43.03373L72.585144 43.03373C 72.62595 42.91117 72.704254 42.804596 72.80902 42.729004L72.80902 42.729004L72.80902 42.729004C 72.9138 42.653473 73.03973 42.612823 73.16888 42.612823L73.16888 42.612823L73.16888 42.612823C 73.29802 42.612823 73.42395 42.653473 73.528725 42.729004L73.528725 42.729004L73.528725 42.729004C 73.6335 42.804596 73.711876 42.91117 73.7526 43.03373L73.7526 43.03373L73.7526 43.03373C 73.92149 43.53885 74.205 43.997925 74.58105 44.3751L74.58105 44.3751L74.58105 44.3751C 74.95703 44.752274 75.4155 45.0372 75.919495 45.207603L75.919495 45.207603L75.919495 45.207603C 76.042496 45.24855 76.14825 45.32685 76.224 45.43155L76.224 45.43155L76.224 45.43155C 76.299 45.536247 76.3395 45.662025 76.3395 45.79103L76.3395 45.79103L76.3395 45.79103C 76.3395 45.92003 76.299 46.0458 76.224 46.150497L76.224 46.150497L76.224 46.150497C 76.14825 46.255203 76.042496 46.333572 75.919495 46.37445z" stroke="#FFFFFF" stroke-width="1" fill="#0082F4" fill-rule="nonzero" />
    <path id=""  transform="matrix(1 0 0 -1 0 112)"  d="M35.024326 71.70172C 35.347427 71.23312 35.7528 70.826996 36.2208 70.50292L36.2208 70.50292L36.2208 70.50292C 35.7528 70.178925 35.347427 69.7728 35.024326 69.3042L35.024326 69.3042L35.024326 69.3042C 34.701225 69.7728 34.295925 70.178925 33.827927 70.50292L33.827927 70.50292L33.827927 70.50292C 34.295925 70.826996 34.701225 71.23312 35.024326 71.70172zM32.2734 69.9195C 32.778 69.7491 33.236248 69.46417 33.612225 69.087006L33.612225 69.087006L33.612225 69.087006C 33.9882 68.70982 34.271698 68.25075 34.440598 67.7457L34.440598 67.7457L34.440598 67.7457C 34.4814 67.62308 34.5597 67.516495 34.664474 67.4409L34.664474 67.4409L34.664474 67.4409C 34.76925 67.36537 34.895176 67.32472 35.024326 67.32472L35.024326 67.32472L35.024326 67.32472C 35.15355 67.32472 35.2794 67.36537 35.38418 67.4409L35.38418 67.4409L35.38418 67.4409C 35.48895 67.516495 35.567326 67.62308 35.608124 67.7457L35.608124 67.7457L35.608124 67.7457C 35.776947 68.25075 36.060524 68.70982 36.4365 69.087006L36.4365 69.087006L36.4365 69.087006C 36.812477 69.46417 37.270725 69.7491 37.77525 69.9195L37.77525 69.9195L37.77525 69.9195C 37.897575 69.96045 38.004 70.038826 38.079376 70.143524L38.079376 70.143524L38.079376 70.143524C 38.15475 70.24822 38.195328 70.373924 38.195328 70.50292L38.195328 70.50292L38.195328 70.50292C 38.195328 70.63193 38.15475 70.757706 38.079376 70.8624L38.079376 70.8624L38.079376 70.8624C 38.004 70.9671 37.897575 71.04547 37.77525 71.086426L37.77525 71.086426L37.77525 71.086426C 37.270725 71.25683 36.812477 71.54175 36.4365 71.91892L36.4365 71.91892L36.4365 71.91892C 36.060524 72.29602 35.776947 72.75517 35.608124 73.26022L35.608124 73.26022L35.608124 73.26022C 35.567326 73.382774 35.48895 73.489426 35.38418 73.56495L35.38418 73.56495L35.38418 73.56495C 35.2794 73.64055 35.15355 73.6812 35.024326 73.6812L35.024326 73.6812L35.024326 73.6812C 34.895176 73.6812 34.76925 73.64055 34.664474 73.56495L34.664474 73.56495L34.664474 73.56495C 34.5597 73.489426 34.4814 73.382774 34.440598 73.26022L34.440598 73.26022L34.440598 73.26022C 34.271698 72.75517 33.9882 72.29602 33.612225 71.91892L33.612225 71.91892L33.612225 71.91892C 33.236248 71.54175 32.778 71.25683 32.2734 71.086426L32.2734 71.086426L32.2734 71.086426C 32.151073 71.04547 32.044724 70.9671 31.96935 70.8624L31.96935 70.8624L31.96935 70.8624C 31.893974 70.757706 31.8534 70.63193 31.8534 70.50292L31.8534 70.50292L31.8534 70.50292C 31.8534 70.373924 31.893974 70.24822 31.96935 70.143524L31.96935 70.143524L31.96935 70.143524C 32.044724 70.038826 32.151073 69.96045 32.2734 69.9195z" stroke="#FFFFFF" stroke-width="1" fill="#0082F4" fill-rule="nonzero" />
    <path id=""  transform="matrix(1 0 0 -1 0 112)"  d="M43.02645 75.83498C 43.648502 75.83498 44.1528 76.33995 44.1528 76.9629L44.1528 76.9629L44.1528 76.9629C 44.1528 77.585846 43.648502 78.09083 43.02645 78.09083L43.02645 78.09083L43.02645 78.09083C 42.404327 78.09083 41.900024 77.585846 41.900024 76.9629L41.900024 76.9629L41.900024 76.9629C 41.900024 76.33995 42.404327 75.83498 43.02645 75.83498z" stroke="#FFFFFF" stroke-width="1" fill="#0082F4" fill-rule="nonzero" />
    <path id=""  transform="matrix(1 0 0 -1 0 112)"  d="M71.224655 35.741997C 71.84677 35.741997 72.351074 36.247498 72.351074 36.870003L72.351074 36.870003L72.351074 36.870003C 72.351074 37.493248 71.84677 37.998077 71.224655 37.998077L71.224655 37.998077L71.224655 37.998077C 70.6026 37.998077 70.0983 37.493248 70.0983 36.870003L70.0983 36.870003L70.0983 36.870003C 70.0983 36.247498 70.6026 35.741997 71.224655 35.741997z" stroke="#FFFFFF" stroke-width="1" fill="#0082F4" fill-rule="nonzero" />
    <path id=""  transform="matrix(1 0 0 -1 0 112)"  d="M66.84007 64.61985C 66.383026 64.162796 65.80072 63.851547 65.166824 63.725403L65.166824 63.725403L65.166824 63.725403C 64.53285 63.599327 63.87578 63.664047 63.278625 63.911327L63.278625 63.911327L63.278625 63.911327C 62.681404 64.158676 62.171024 64.57755 61.811928 65.115L61.811928 65.115L61.811928 65.115C 61.452827 65.65245 61.261127 66.284256 61.261127 66.93067L61.261127 66.93067L61.261127 66.93067C 61.261127 67.57703 61.452827 68.208824 61.811928 68.74628L61.811928 68.74628L61.811928 68.74628C 62.171024 69.28372 62.681404 69.7026 63.278625 69.94995L63.278625 69.94995L63.278625 69.94995C 63.87578 70.19722 64.53285 70.26195 65.166824 70.13588L65.166824 70.13588L65.166824 70.13588C 65.80072 70.00972 66.383026 69.69847 66.84007 69.241425L66.84007 69.241425L66.84007 69.241425C 67.451996 68.628075 67.79573 67.79707 67.79573 66.93067L67.79573 66.93067L67.79573 66.93067C 67.79573 66.0642 67.451996 65.2332 66.84007 64.61985zM64.52925 71.4291C 63.7899 71.42865 63.062027 71.24595 62.41005 70.897125L62.41005 70.897125L62.41005 70.897125C 61.75815 70.5483 61.202248 70.04415 60.791702 69.4293L60.791702 69.4293L60.791702 69.4293C 60.381077 68.81438 60.128403 68.10773 60.056023 67.3719L60.056023 67.3719L60.056023 67.3719C 59.98365 66.63608 60.093826 65.89372 60.3768 65.210625L60.3768 65.210625L60.3768 65.210625C 60.6597 64.52753 61.1067 63.92475 61.6782 63.455624L61.6782 63.455624L61.6782 63.455624C 62.249702 62.986504 62.928 62.6655 63.653175 62.52105L63.653175 62.52105L63.653175 62.52105C 64.37827 62.376602 65.1279 62.413124 65.835526 62.62748L65.835526 62.62748L65.835526 62.62748C 66.54315 62.841827 67.18703 63.227325 67.710144 63.74985L67.710144 63.74985L67.710144 63.74985C 68.33925 64.37895 68.76772 65.18047 68.94128 66.0531L68.94128 66.0531L68.94128 66.0531C 69.11482 66.92572 69.02573 67.83022 68.68523 68.65222L68.68523 68.65222L68.68523 68.65222C 68.3448 69.47415 67.768196 70.17675 67.0284 70.671005L67.0284 70.671005L67.0284 70.671005C 66.288605 71.16533 65.4189 71.4291 64.529175 71.4291L64.529175 71.4291L64.529175 71.4291L64.529175 71.4291L64.52925 71.4291z" stroke="#FFFFFF" stroke-width="1" fill="#0082F4" fill-rule="nonzero" />
	</g>
</g>
</svg>