<?xml version="1.0" standalone="no"?>
<!DOCTYPE svg PUBLIC "-//W3C//DTD SVG 1.0//EN" "http://www.w3.org/TR/2001/REC-SVG-20010904/DTD/svg10.dtd">
<svg xmlns="http://www.w3.org/2000/svg" xmlns:xlink="http://www.w3.org/1999/xlink" id="body_4" width="17" height="31">

<defs>
    <clipPath  id="1">

    <path id=""  clip-rule="evenodd" transform="matrix(1 0 0 1 0 0)"  d="M0 23L0 -0.25L0 -0.25L13.5 -0.25L13.5 -0.25L13.5 23L13.5 23L0 23z" />    </clipPath>
</defs>

<g transform="matrix(1.3333 0 0 1.3333 0 0)">
	<g clip-path="url(#1)" >
    <path id=""  transform="matrix(1 0 0 -1 0 23)"  d="M13.5 23.25L13.5 23.25L13.5 23.25L13.5 23.25L13.5 23.25L9.818175 23.25L9.818175 23.25L9.818175 23.25C 8.19075 23.25 6.62991 22.637613 5.4791174 21.54756L5.4791174 21.54756L5.4791174 21.54756C 4.3283253 20.457502 3.6818175 18.979073 3.6818175 17.4375L3.6818175 17.4375L3.6818175 17.4375L3.6818175 17.4375L3.6818175 13.950001L3.6818175 13.950001L3.6818175 13.950001L3.6818175 13.950001L0 13.950001L0 13.950001L0 13.950001L0 13.950001L0 9.299999L0 9.299999L0 9.299999L0 9.299999L3.6818175 9.299999L3.6818175 9.299999L3.6818175 9.299999L3.6818175 9.299999L3.6818175 0L3.6818175 0L3.6818175 0L3.6818175 0L8.590876 0L8.590876 0L8.590876 0L8.590876 0L8.590876 9.299999L8.590876 9.299999L8.590876 9.299999L8.590876 9.299999L12.272699 9.299999L12.272699 9.299999L13.5 13.950001L13.5 13.950001L13.5 13.950001L13.5 13.950001L8.590876 13.950001L8.590876 13.950001L8.590876 13.950001L8.590876 13.950001L8.590876 17.4375L8.590876 17.4375L8.590876 17.4375C 8.590876 17.745817 8.720175 18.041496 8.95035 18.259516L8.95035 18.259516L8.95035 18.259516C 9.180525 18.477526 9.492676 18.6 9.818175 18.6L9.818175 18.6L9.818175 18.6L9.818175 18.6L13.5 18.6L13.5 18.6L13.5 18.6L13.5 18.6L13.5 23.25z" stroke="#FFFFFF" stroke-width="1" fill="#FFFFFF" fill-rule="nonzero" />
	</g>
</g>
</svg>