<?xml version="1.0" standalone="no"?>
<!DOCTYPE svg PUBLIC "-//W3C//DTD SVG 1.0//EN" "http://www.w3.org/TR/2001/REC-SVG-20010904/DTD/svg10.dtd">
<svg xmlns="http://www.w3.org/2000/svg" xmlns:xlink="http://www.w3.org/1999/xlink" id="body_5" width="149" height="149">

<defs>
    <clipPath  id="1">

    <path id=""  clip-rule="evenodd" transform="matrix(1 0 0 1 0 0)"  d="M0 112L0 -0.5L0 -0.5L112.5 -0.5L112.5 -0.5L112.5 112L112.5 112L0 112z" />    </clipPath>
</defs>

<g transform="matrix(1.3333 0 0 1.3333 0 0)">
	<g clip-path="url(#1)" >
    <path id=""  transform="matrix(1 0 0 -1 0 112)"  d="M111 56.25C 111 71.36879 105.6547 84.27349 94.964096 94.964096L94.964096 94.964096L94.964096 94.964096C 84.2735 105.6547 71.3688 111 56.25 111L56.25 111L56.25 111C 41.131207 111 28.22651 105.6547 17.535904 94.964096L17.535904 94.964096L17.535904 94.964096C 6.8453016 84.27349 1.5 71.36879 1.5 56.25L1.5 56.25L1.5 56.25C 1.5 41.131203 6.8453016 28.226501 17.535904 17.535904L17.535904 17.535904L17.535904 17.535904C 28.22651 6.845299 41.131207 1.5 56.25 1.5L56.25 1.5L56.25 1.5C 71.3688 1.5 84.2735 6.845299 94.964096 17.535904L94.964096 17.535904L94.964096 17.535904C 105.6547 28.226501 111 41.131203 111 56.25" stroke="#0082F4" stroke-width="3" fill="none" />
    <path id=""  transform="matrix(1 0 0 -1 0 112)"  d="M79.974 32.892L79.974 32.892L79.974 32.892L79.974 32.892L79.974 32.892L47.478676 32.892L47.478676 32.892L47.478676 32.892L47.478676 32.892L47.478676 48.015373L47.478676 48.015373L47.478676 48.015373L47.478676 48.015373L53.0163 48.015373L53.0163 48.015373L53.0163 48.015373C 54.160873 48.015373 55.092003 48.946575 55.092003 50.091225L55.092003 50.091225L55.092003 50.091225L55.092003 50.091225L55.092003 60.427128L55.092003 60.427128L55.092003 60.427128L55.092003 60.427128L56.579098 60.427128L56.579098 60.427128L56.579098 60.427128L56.579098 60.427128L56.579098 42.50483L56.579098 42.50483L56.579098 42.50483C 56.579098 42.091873 56.781 41.705093 57.119698 41.46885L57.119698 41.46885L57.119698 41.46885C 57.3345 41.319077 57.587173 41.241898 57.84218 41.241898L57.84218 41.241898L57.84218 41.241898C 57.989174 41.241898 58.136925 41.26747 58.278603 41.319748L58.278603 41.319748L63.72637 43.326523L63.72637 43.326523L69.17415 41.319748L69.17415 41.319748L69.17415 41.319748C 69.5616 41.176956 69.99442 41.232674 70.333046 41.46885L70.333046 41.46885L70.333046 41.46885C 70.671745 41.705093 70.87365 42.091873 70.87365 42.50483L70.87365 42.50483L70.87365 42.50483L70.87365 42.50483L70.87365 60.42697L70.87365 60.42697L70.87365 60.42697L70.87365 60.42697L79.974 60.42697L79.974 60.42697L79.974 60.42697L79.974 60.42697L79.974 32.892L79.974 32.892L79.974 32.892L79.974 32.892L79.974 32.892zM32.525925 78.10597L32.525925 78.10597L32.525925 78.10597L32.525925 78.10597L32.525925 78.10597L37.132202 78.10597L37.132202 78.10597L37.132202 78.10597C 36.992924 77.643295 36.91245 77.15572 36.8973 76.6518L36.8973 76.6518L36.8973 76.6518L36.8973 76.6518L34.438126 76.6518L34.438126 76.6518L34.438126 76.6518C 33.7407 76.6518 33.1752 76.08638 33.1752 75.38888L33.1752 75.38888L33.1752 75.38888C 33.1752 74.691376 33.7407 74.125946 34.438126 74.125946L34.438126 74.125946L34.438126 74.125946L34.438126 74.125946L50.654102 74.125946L50.654102 74.125946L50.654102 74.125946C 51.3516 74.125946 51.917027 74.691376 51.917027 75.38888L51.917027 75.38888L51.917027 75.38888C 51.917027 76.08638 51.3516 76.6518 50.654102 76.6518L50.654102 76.6518L50.654102 76.6518L50.654102 76.6518L48.194855 76.6518L48.194855 76.6518L48.194855 76.6518C 48.179703 77.15572 48.099075 77.643295 47.959953 78.10597L47.959953 78.10597L47.959953 78.10597L47.959953 78.10597L52.566227 78.10597L52.566227 78.10597L52.566227 78.10597L52.566227 78.10597L52.566227 50.541298L52.566227 50.541298L52.566227 50.541298L52.566227 50.541298L32.525925 50.541298L32.525925 50.541298L32.525925 50.541298L32.525925 50.541298L32.525925 78.10597zM42.54615 79.60785C 44.213024 79.60785 45.579224 78.296776 45.668476 76.651726L45.668476 76.651726L45.668476 76.651726L45.668476 76.651726L39.423748 76.651726L39.423748 76.651726L39.423748 76.651726C 39.512924 78.29685 40.8792 79.60785 42.54615 79.60785zM59.105175 60.42697L59.105175 60.42697L59.105175 60.42697L59.105175 60.42697L59.105175 60.42697L68.347946 60.42697L68.347946 60.42697L68.347946 60.42697L68.347946 60.42697L68.347946 44.315994L68.347946 44.315994L64.16318 45.857628L64.16318 45.857628L64.16318 45.857628C 63.881477 45.96135 63.571724 45.96135 63.290028 45.857628L63.290028 45.857628L59.105247 44.315994L59.105247 44.315994L59.105247 44.315994L59.105247 44.315994L59.105247 60.42697L59.105247 60.42697L59.105247 60.42697L59.105247 60.42697L59.105175 60.42697zM80.38425 62.952904L80.38425 62.952904L80.38425 62.952904L80.38425 62.952904L80.38425 62.952904L55.092148 62.952904L55.092148 62.952904L55.092148 62.952904L55.092148 62.952904L55.092148 78.55605L55.092148 78.55605L55.092148 78.55605C 55.092148 79.70062 54.16095 80.6319 53.016373 80.6319L53.016373 80.6319L53.016373 80.6319L53.016373 80.6319L46.378273 80.6319L46.378273 80.6319L46.378273 80.6319C 45.370125 81.563324 44.0238 82.1337 42.54615 82.1337L42.54615 82.1337L42.54615 82.1337C 41.068424 82.1337 39.722176 81.563324 38.71395 80.6319L38.71395 80.6319L38.71395 80.6319L38.71395 80.6319L32.07585 80.6319L32.07585 80.6319L32.07585 80.6319C 30.9312 80.6319 30 79.70062 30 78.55605L30 78.55605L30 78.55605L30 78.55605L30 50.091225L30 50.091225L30 50.091225C 30 48.946648 30.9312 48.015373 32.07585 48.015373L32.07585 48.015373L32.07585 48.015373L32.07585 48.015373L44.95275 48.015373L44.95275 48.015373L44.95275 48.015373L44.95275 48.015373L44.95275 32.48175L44.95275 32.48175L44.95275 32.48175C 44.95275 31.315498 45.901947 30.365997 47.06865 30.365997L47.06865 30.365997L47.06865 30.365997L47.06865 30.365997L80.38425 30.365997L80.38425 30.365997L80.38425 30.365997C 81.551254 30.365997 82.5 31.315498 82.5 32.48175L82.5 32.48175L82.5 32.48175L82.5 32.48175L82.5 60.837376L82.5 60.837376L82.5 60.837376C 82.5 62.00392 81.551254 62.952904 80.38425 62.952904z" stroke="#FFFFFF" stroke-width="1" fill="#0082F4" fill-rule="nonzero" />
    <path id=""  transform="matrix(1 0 0 -1 0 112)"  d="M46.771126 65.92117L46.771126 65.92117L46.771126 65.92117L40.618427 59.768547L40.618427 59.768547L38.32095 62.066025L38.32095 62.066025L38.32095 62.066025C 37.82775 62.559227 37.0281 62.559227 36.53475 62.066025L36.53475 62.066025L36.53475 62.066025C 36.04155 61.572823 36.04155 60.7731 36.53475 60.279823L36.53475 60.279823L39.725323 57.089325C 39.96225 56.8524 40.283474 56.719425 40.618427 56.719425L40.618427 56.719425L40.618427 56.719425C 40.953377 56.719425 41.274597 56.8524 41.511528 57.089325L41.511528 57.089325L48.557247 64.13505C 49.050446 64.62825 49.050446 65.42798 48.557247 65.92117L48.557247 65.92117L48.557247 65.92117C 48.064053 66.41445 47.2644 66.41445 46.771126 65.92117z" stroke="#FFFFFF" stroke-width="1" fill="#0082F4" fill-rule="nonzero" />
	</g>
</g>
</svg>