<?xml version="1.0" standalone="no"?>
<!DOCTYPE svg PUBLIC "-//W3C//DTD SVG 1.0//EN" "http://www.w3.org/TR/2001/REC-SVG-20010904/DTD/svg10.dtd">
<svg xmlns="http://www.w3.org/2000/svg" xmlns:xlink="http://www.w3.org/1999/xlink" id="body_6" width="31" height="31">

<defs>
    <clipPath  id="1">

    <path id=""  clip-rule="evenodd" transform="matrix(1 0 0 1 0 0)"  d="M0 23L0 -0.25L0 -0.25L23.25 -0.25L23.25 -0.25L23.25 23L23.25 23L0 23z" />    </clipPath>
</defs>

<g transform="matrix(1.3333 0 0 1.3333 0 0)">
	<g clip-path="url(#1)" >
    <path id=""  transform="matrix(1 0 0 -1 0 23)"  d="M17.4375 23.25L17.4375 23.25L17.4375 23.25L17.4375 23.25L17.4375 23.25L5.8125 23.25L5.8125 23.25L5.8125 23.25C 2.6023426 23.25 0 20.647657 0 17.4375L0 17.4375L0 17.4375L0 17.4375L0 5.8125L0 5.8125L0 5.8125C 0 2.6023502 2.6023426 0 5.8125 0L5.8125 0L5.8125 0L5.8125 0L17.4375 0L17.4375 0L17.4375 0C 20.64765 0 23.25 2.6023502 23.25 5.8125L23.25 5.8125L23.25 5.8125L23.25 5.8125L23.25 17.4375L23.25 17.4375L23.25 17.4375C 23.25 20.647657 20.64765 23.25 17.4375 23.25z" stroke="#FFFFFF" stroke-width="1" fill="#FFFFFF" fill-rule="nonzero" />
    <path id=""  transform="matrix(1 0 0 -1 0 23)"  d="M16.275002 12.357374C 16.418476 11.389874 16.25325 10.401825 15.8028 9.533625L15.8028 9.533625L15.8028 9.533625C 15.352275 8.665501 14.639549 7.9614744 13.765951 7.5217495L13.765951 7.5217495L13.765951 7.5217495C 12.892275 7.0820236 11.902201 6.9289494 10.936575 7.0843506L10.936575 7.0843506L10.936575 7.0843506C 9.970949 7.23975 9.078899 7.695675 8.38725 8.387251L8.38725 8.387251L8.38725 8.387251C 7.695675 9.078899 7.239773 9.970949 7.084388 10.936575L7.084388 10.936575L7.084388 10.936575C 6.928995 11.902201 7.082055 12.892275 7.5217505 13.765875L7.5217505 13.765875L7.5217505 13.765875C 7.96155 14.639549 8.6655 15.352275 9.5337 15.802762L9.5337 15.802762L9.5337 15.802762C 10.401825 16.253227 11.38995 16.418482 12.357374 16.275015L12.357374 16.275015L12.357374 16.275015C 13.3443 16.128675 14.25795 15.66885 14.9634 14.9633255L14.9634 14.9633255L14.9634 14.9633255C 15.66885 14.257875 16.128675 13.3443 16.275002 12.357374z" stroke="#FFFFFF" stroke-width="1" fill="#C3C3C3" fill-rule="nonzero" />
    <path id=""  transform="matrix(1 0 0 -1 0 23)"  d="M18.01875 18.018764L18.01875 18.018764L18.01875 18.018764L18.01875 18.018764L18.01875 18.018764L18.03075 18.018764" stroke="#C3C3C3" stroke-width="1.5" stroke-linecap="square" fill="none" />
	</g>
</g>
</svg>