<?xml version="1.0" standalone="no"?>
<!DOCTYPE svg PUBLIC "-//W3C//DTD SVG 1.0//EN" "http://www.w3.org/TR/2001/REC-SVG-20010904/DTD/svg10.dtd">
<svg xmlns="http://www.w3.org/2000/svg" xmlns:xlink="http://www.w3.org/1999/xlink" id="body_7" width="33" height="28">

<defs>
    <clipPath  id="1">

    <path id=""  clip-rule="evenodd" transform="matrix(1 0 0 1 0 0)"  d="M0 21L0 0L0 0L25.5 0L25.5 0L25.5 21L25.5 21L0 21z" />    </clipPath>
</defs>

<g transform="matrix(1.3333 0 0 1.3333 0 0)">
	<g clip-path="url(#1)" >
    <path id=""  transform="matrix(1 0 0 -1 0 21)"  d="M3.1499999 20.25L3.1499999 20.25L3.1499999 20.25L3.1499999 20.25L3.1499999 20.25L22.349998 20.25L22.349998 20.25L22.349998 20.25C 23.67 20.25 24.75 19.17 24.75 17.85L24.75 17.85L24.75 17.85L24.75 17.85L24.75 3.4500008L24.75 3.4500008L24.75 3.4500008C 24.75 2.130001 23.67 1.0499992 22.349998 1.0499992L22.349998 1.0499992L22.349998 1.0499992L22.349998 1.0499992L3.1499999 1.0499992L3.1499999 1.0499992L3.1499999 1.0499992C 1.83 1.0499992 0.75 2.130001 0.75 3.4500008L0.75 3.4500008L0.75 3.4500008L0.75 3.4500008L0.75 17.85L0.75 17.85L0.75 17.85C 0.75 19.17 1.83 20.25 3.1499999 20.25z" stroke="#000000" stroke-width="1" stroke-linecap="square" fill="none" />
    <path id=""  transform="matrix(1 0 0 -1 0 21)"  d="M24.75 17.850037L24.75 17.850037L24.75 17.850037L12.75 9.450001L12.75 9.450001L0.75 17.850037" stroke="#000000" stroke-width="1" stroke-linecap="square" fill="none" />
	</g>
</g>
</svg>