<?xml version="1.0" standalone="no"?>
<!DOCTYPE svg PUBLIC "-//W3C//DTD SVG 1.0//EN" "http://www.w3.org/TR/2001/REC-SVG-20010904/DTD/svg10.dtd">
<svg xmlns="http://www.w3.org/2000/svg" xmlns:xlink="http://www.w3.org/1999/xlink" id="body_8" width="28" height="28">

<defs>
    <clipPath  id="1">

    <path id=""  clip-rule="evenodd" transform="matrix(1 0 0 1 0 0)"  d="M0 21L0 -0.75L0 -0.75L21.75 -0.75L21.75 -0.75L21.75 21L21.75 21L0 21z" />    </clipPath>
</defs>

<g transform="matrix(1.3333 0 0 1.3333 0 0)">
	<g clip-path="url(#1)" >
    <path id=""  transform="matrix(1 0 0 -1 0 21)"  d="M21.75 10.875C 21.75 13.878048 20.688263 16.44131 18.564785 18.564785L18.564785 18.564785L18.564785 18.564785C 16.44131 20.688263 13.878048 21.75 10.875 21.75L10.875 21.75L10.875 21.75C 7.871952 21.75 5.30869 20.688263 3.185214 18.564785L3.185214 18.564785L3.185214 18.564785C 1.061738 16.44131 0 13.878048 0 10.875L0 10.875L0 10.875C 0 7.871952 1.061738 5.308689 3.185214 3.185215L3.185214 3.185215L3.185214 3.185215C 5.30869 1.0617371 7.871952 0 10.875 0L10.875 0L10.875 0C 13.878048 0 16.44131 1.0617371 18.564785 3.185215L18.564785 3.185215L18.564785 3.185215C 20.688263 5.308689 21.75 7.871952 21.75 10.875" stroke="#FFFFFF" stroke-width="1" fill="#0082F4" fill-rule="evenodd" />
    <path id=""  transform="matrix(1 0 0 -1 0 21)"  d="M15.01545 11.06985C 15.16545 10.983225 15.16545 10.766775 15.01545 10.68015L15.01545 10.68015L8.973525 7.191825C 8.823524 7.1052 8.636024 7.2135 8.636024 7.386675L8.636024 7.386675L8.636024 14.363295C 8.636024 14.5365 8.823524 14.644754 8.973525 14.558152L8.973525 14.558152L15.01545 11.06985z" stroke="#FFFFFF" stroke-width="1" fill="#FFFFFF" fill-rule="nonzero" />
	</g>
</g>
</svg>