<?xml version="1.0" standalone="no"?>
<!DOCTYPE svg PUBLIC "-//W3C//DTD SVG 1.0//EN" "http://www.w3.org/TR/2001/REC-SVG-20010904/DTD/svg10.dtd">
<svg xmlns="http://www.w3.org/2000/svg" xmlns:xlink="http://www.w3.org/1999/xlink" id="body_9" width="36" height="28">

<defs>
    <clipPath  id="1">

    <path id=""  clip-rule="evenodd" transform="matrix(1 0 0 1 0 0)"  d="M0 21L0 0L0 0L27 0L27 0L27 21L27 21L0 21z" />    </clipPath>
</defs>

<g transform="matrix(1.3333 0 0 1.3333 0 0)">
	<g clip-path="url(#1)" >
    <path id=""  transform="matrix(1 0 0 -1 0 21)"  d="M26.295975 20.988302C 25.182 20.202547 23.948624 19.601564 22.643324 19.208513L22.643324 19.208513L22.643324 19.208513C 21.942749 20.014057 21.0117 20.585009 19.976025 20.844145L19.976025 20.844145L19.976025 20.844145C 18.94035 21.10328 17.85015 21.038095 16.852726 20.65741L16.852726 20.65741L16.852726 20.65741C 15.8553 20.276722 14.998876 19.598902 14.39925 18.71562L14.39925 18.71562L14.39925 18.71562C 13.7997 17.832338 13.485825 16.786207 13.500074 15.718725L13.500074 15.718725L13.500074 15.718725L13.500074 15.718725L13.500074 14.555468L13.500074 14.555468L13.500074 14.555468C 11.4558 14.502458 9.4302 14.955847 7.6035748 15.87525L7.6035748 15.87525L7.6035748 15.87525C 5.7769127 16.794653 4.2060075 18.15153 3.0307498 19.825043L3.0307498 19.825043L3.0307498 19.825043C 3.0307498 19.825043 -1.6223025 9.35565 8.8470745 4.70265L8.8470745 4.70265L8.8470745 4.70265C 6.45135 3.0764256 3.597435 2.2610245 0.70422375 2.3761501L0.70422375 2.3761501L0.70422375 2.3761501C 11.173574 -3.440174 23.969475 2.3761501 23.969475 15.753622L23.969475 15.753622L23.969475 15.753622C 23.968424 16.077644 23.937225 16.400871 23.8764 16.719135L23.8764 16.719135L23.8764 16.719135C 25.063652 17.88996 25.901398 19.36821 26.295975 20.988302z" stroke="#FFFFFF" stroke-width="1" fill="#FFFFFF" fill-rule="nonzero" />
	</g>
</g>
</svg>