<?xml version="1.0" standalone="no"?>
<!DOCTYPE svg PUBLIC "-//W3C//DTD SVG 1.0//EN" "http://www.w3.org/TR/2001/REC-SVG-20010904/DTD/svg10.dtd">
<svg xmlns="http://www.w3.org/2000/svg" xmlns:xlink="http://www.w3.org/1999/xlink" id="body_10" width="40" height="28">

<defs>
    <clipPath  id="1">

    <path id=""  clip-rule="evenodd" transform="matrix(1 0 0 1 0 0)"  d="M0 21L0 -0.75L0 -0.75L30 -0.75L30 -0.75L30 21L30 21L0 21z" />    </clipPath>
</defs>

<g transform="matrix(1.3333 0 0 1.3333 0 0)">
	<g clip-path="url(#1)" >
    <path id=""  transform="matrix(1 0 0 -1 0 21)"  d="M28.653374 17.830208C 28.499474 18.451838 28.186127 19.021402 27.7449 19.481369L27.7449 19.481369L27.7449 19.481369C 27.3036 19.941338 26.750175 20.275417 26.14035 20.449867L26.14035 20.449867L26.14035 20.449867C 23.91225 21 15 21 15 21L15 21L15 21C 15 21 6.0877347 21 3.8596725 20.39748L3.8596725 20.39748L3.8596725 20.39748C 3.2498624 20.22303 2.696385 19.88895 2.2551374 19.428982L2.2551374 19.428982L2.2551374 19.428982C 1.8138825 18.969015 1.500495 18.39945 1.3466175 17.777813L1.3466175 17.777813L1.3466175 17.777813C 0.9388499 15.49143 0.7393875 13.172026 0.75074255 10.848825L0.75074255 10.848825L0.75074255 10.848825C 0.7362053 8.508076 0.9356775 6.1710005 1.3466175 3.8673744L1.3466175 3.8673744L1.3466175 3.8673744C 1.5162601 3.265049 1.8366749 2.7171745 2.276895 2.2766247L2.276895 2.2766247L2.276895 2.2766247C 2.717115 1.8360748 3.2622676 1.5177765 3.8596725 1.3525505L3.8596725 1.3525505L3.8596725 1.3525505C 6.0877347 0.75 15 0.75 15 0.75L15 0.75L15 0.75C 15 0.75 23.91225 0.75 26.14035 1.3525505L26.14035 1.3525505L26.14035 1.3525505C 26.750175 1.5270004 27.3036 1.8610497 27.7449 2.3210258L27.7449 2.3210258L27.7449 2.3210258C 28.186127 2.7810001 28.499474 3.3505497 28.653374 3.972149L28.653374 3.972149L28.653374 3.972149C 29.057999 6.24135 29.257423 8.543024 29.24925 10.848825L29.24925 10.848825L29.24925 10.848825C 29.263798 13.189501 29.0643 15.526605 28.653374 17.830208z" stroke="#FFFFFF" stroke-width="1" fill="#FFFFFF" fill-rule="nonzero" />
    <path id=""  transform="matrix(1 0 0 -1 0 21)"  d="M11.25 7.0723495C 11.25 7.066575 11.256225 7.062975 11.261175 7.0658255L11.261175 7.0658255L18.2199 11.0232C 18.224998 11.02605 18.224998 11.0334 18.2199 11.03625L18.2199 11.03625L11.261175 14.993625C 11.256225 14.996468 11.25 14.992861 11.25 14.987107L11.25 14.987107L11.25 14.987107L11.25 14.987107L11.25 7.0723495z" stroke="#FFFFFF" stroke-width="1" fill="#C3C3C3" fill-rule="nonzero" />
	</g>
</g>
</svg>